<svg xmlns="http://www.w3.org/2000/svg" width="1020" height="455" viewBox="0 0 1020 455">
<defs><marker id="arrow" markerWidth="8" markerHeight="8" refX="7" refY="4" orient="auto"><path d="M0 0 L8 4 L0 8 Z" fill="#527089"/></marker></defs>
<rect x="350" y="20" width="320" height="165" rx="12" fill="#f8fafc" stroke="#b8c6d2" stroke-width="1.5"/>
<rect x="20" y="225" width="980" height="205" rx="12" fill="#f8fafc" stroke="#b8c6d2" stroke-width="1.5"/>
<g font-family="Noto Sans SC" font-size="23" fill="#1b2430" text-anchor="middle"><text x="510" y="55">控制面</text><text x="82" y="263">数据面</text></g>
<g fill="#edf3f8" stroke="#527089" stroke-width="1.5"><rect x="410" y="78" width="200" height="75" rx="7"/><rect x="50" y="305" width="180" height="75" rx="7"/><rect x="420" y="305" width="180" height="75" rx="7"/><rect x="790" y="305" width="180" height="75" rx="7"/></g>
<g font-family="Noto Sans SC" font-size="24" fill="#1b2430" text-anchor="middle"><text x="510" y="126">协调器</text><text x="140" y="352">客户端</text><text x="510" y="352">owner 节点</text><text x="880" y="352">follower 节点</text></g>
<g fill="none" stroke="#527089" stroke-width="2" marker-end="url(#arrow)"><path d="M230 343 H412"/><path d="M600 343 H782"/><path d="M140 305 V115 H402" stroke-dasharray="6 5"/><path d="M510 305 V161" stroke-dasharray="6 5"/><path d="M880 305 V115 H618" stroke-dasharray="6 5"/></g>
<g font-family="Noto Sans SC" font-size="21" fill="#314d62" text-anchor="middle"><rect x="247" y="278" width="145" height="35" fill="#f8fafc"/><text x="322" y="303">读写（直连 owner）</text><rect x="622" y="278" width="145" height="35" fill="#f8fafc"/><text x="695" y="303">按序复制流</text><rect x="79" y="186" width="122" height="33" fill="#fff"/><text x="140" y="210">拉取拓扑</text><rect x="414" y="185" width="192" height="33" fill="#fff"/><text x="510" y="209">续约、可达性报告</text><rect x="784" y="185" width="192" height="33" fill="#fff"/><text x="880" y="209">续约、可达性报告</text></g>
</svg>